<?xml version="1.0" standalone="no"?>
<!DOCTYPE svg PUBLIC "-//W3C//DTD SVG 20010904//EN"
 "http://www.w3.org/TR/2001/REC-SVG-20010904/DTD/svg10.dtd">
<svg version="1.0" xmlns="http://www.w3.org/2000/svg"
 width="152.000000pt" height="152.000000pt" viewBox="0 0 152.000000 152.000000"
 preserveAspectRatio="xMidYMid meet">
<metadata>
Created by potrace 1.14, written by Peter Selinger 2001-2017
</metadata>
<g transform="translate(0.000000,152.000000) scale(0.100000,-0.100000)"
fill="#000000" stroke="none">
<path d="M1195 1290 c-4 -6 -10 -8 -14 -6 -4 3 -59 -44 -121 -104 l-115 -108
-29 15 c-31 16 -31 16 -62 -40 -10 -19 -21 -27 -30 -23 -9 3 -18 6 -20 6 -2 0
-4 23 -4 51 l0 50 -52 -3 -53 -3 -5 -50 c-4 -36 -10 -51 -22 -53 -9 -2 -19 5
-22 15 -4 10 -15 29 -25 42 l-18 24 -42 -23 c-22 -13 -41 -28 -41 -33 0 -5 10
-25 21 -44 19 -31 20 -36 7 -50 -13 -13 -19 -12 -49 6 -46 28 -54 27 -78 -13
-28 -45 -27 -51 18 -77 28 -16 37 -26 34 -40 -4 -15 -15 -19 -53 -19 -47 0
-48 -1 -51 -32 -8 -70 -3 -78 52 -78 45 0 49 -2 49 -23 0 -17 -11 -30 -40 -46
l-40 -22 16 -31 16 -31 -56 -56 c-39 -40 -66 -81 -95 -143 -22 -49 -36 -88
-31 -88 4 0 46 16 92 36 61 26 97 49 138 89 l55 55 30 -20 c42 -28 52 -25 75
20 11 22 24 40 28 40 20 -1 31 -20 34 -60 l3 -45 53 -3 52 -3 0 50 c0 28 4 51
9 51 5 0 16 3 24 6 10 3 22 -8 38 -35 12 -23 25 -41 29 -41 10 0 80 50 80 58
0 4 -9 22 -20 40 -16 26 -18 37 -9 53 10 20 11 20 54 -5 48 -26 50 -26 80 33
18 37 19 36 -37 67 -47 25 -32 51 32 56 41 3 45 5 48 32 2 15 1 39 -2 52 -6
21 -12 24 -56 24 -43 0 -50 3 -50 20 0 12 14 28 39 42 l39 22 -20 39 -19 39
78 81 c43 45 88 90 101 102 13 11 24 27 26 35 2 8 6 23 11 33 5 13 0 26 -21
48 -29 30 -48 36 -59 19z m15 -96 c0 -24 -22 -27 -43 -6 -17 18 -18 23 -7 37
12 14 15 14 31 -1 11 -10 19 -23 19 -30z m-430 -144 c0 -41 3 -50 18 -50 9 0
26 -3 37 -6 16 -4 24 3 38 30 15 33 47 50 47 26 0 -6 -39 -49 -87 -95 -60 -57
-98 -86 -120 -90 -36 -7 -78 -51 -88 -93 -8 -37 -179 -210 -190 -191 -8 12 8
30 49 54 14 8 16 18 10 53 l-7 42 -48 0 c-46 0 -49 2 -49 25 0 23 3 25 49 25
43 0 50 3 55 24 3 13 8 31 12 39 4 10 -8 22 -35 38 -45 25 -47 27 -28 53 13
18 15 18 55 -5 l41 -24 28 28 28 28 -23 40 c-13 22 -22 42 -20 44 2 1 12 7 24
13 18 10 23 6 43 -29 21 -37 25 -40 54 -33 46 9 47 11 47 60 0 42 1 44 30 44
29 0 30 -1 30 -50z m280 -140 c0 -4 -17 -16 -39 -28 -38 -22 -38 -22 -28 -62
11 -40 12 -40 59 -40 45 0 48 -2 48 -25 0 -23 -4 -25 -45 -25 -48 0 -54 -6
-58 -55 -2 -25 4 -33 35 -50 42 -22 43 -23 24 -48 -14 -18 -16 -18 -55 3 l-41
21 -25 -28 c-30 -34 -30 -35 -5 -75 14 -23 16 -35 8 -45 -18 -22 -35 -15 -58
23 -20 32 -25 34 -54 28 -45 -9 -46 -11 -46 -60 0 -42 -1 -44 -30 -44 -29 0
-30 2 -30 45 0 42 -1 44 -37 54 -34 10 -40 8 -55 -12 -10 -12 -20 -30 -24 -39
-7 -22 -13 -22 -39 -3 -18 15 -16 19 65 100 72 73 89 85 118 85 68 0 122 56
122 126 0 22 18 47 82 111 74 75 84 82 95 66 7 -9 13 -20 13 -23z m-360 -84
c0 -2 -8 -10 -17 -17 -16 -13 -17 -12 -4 4 13 16 21 21 21 13z m140 -92 c0
-21 -54 -74 -76 -74 -14 0 -7 12 26 45 24 25 45 45 47 45 2 0 3 -7 3 -16z
m-490 -373 c0 -5 -7 -11 -14 -14 -10 -4 -13 -1 -9 9 6 15 23 19 23 5z"/>
<path d="M663 919 c-45 -22 -88 -76 -103 -130 -13 -45 -13 -49 5 -49 8 0 19
17 26 42 15 59 74 115 127 124 26 4 42 12 42 20 0 21 -48 17 -97 -7z"/>
<path d="M1141 341 c-19 -12 -6 -41 19 -41 15 0 20 7 20 25 0 26 -14 31 -39
16z"/>
<path d="M1201 311 c-12 -21 7 -35 34 -25 18 7 19 16 3 32 -17 17 -26 15 -37
-7z"/>
<path d="M1086 294 c-11 -28 -6 -44 13 -44 10 0 22 7 25 16 8 22 8 22 -13 33
-15 8 -20 7 -25 -5z"/>
<path d="M1170 251 c0 -8 69 -162 76 -170 2 -2 13 4 24 14 19 17 21 17 40 0
29 -27 52 -4 25 25 -17 19 -17 21 0 40 17 19 17 20 -26 38 -25 11 -64 29 -89
41 -50 24 -50 24 -50 12z m111 -104 c-9 -9 -14 -8 -21 3 -16 24 -11 31 11 19
16 -8 18 -14 10 -22z"/>
<path d="M1105 226 c-16 -12 -17 -16 -6 -30 18 -21 28 -20 40 3 15 27 -9 46
-34 27z"/>
</g>
</svg>
